<?xml version="1.0" encoding="utf-8"?>
<!-- Generator: Adobe Illustrator 26.3.1, SVG Export Plug-In . SVG Version: 6.00 Build 0)  -->
<svg version="1.1" id="Calque_1" xmlns="http://www.w3.org/2000/svg" xmlns:xlink="http://www.w3.org/1999/xlink" x="0px" y="0px"
	 viewBox="0 0 150 100" style="enable-background:new 0 0 150 100;" xml:space="preserve">
<style type="text/css">
	.st0{clip-path:url(#SVGID_00000093857474833600375560000007331965945347607962_);}
	.st1{fill:#0000FF;}
	.st2{font-family:'Montserrat-Bold';}
	.st3{font-size:19.2176px;}
	.st4{clip-path:url(#SVGID_00000046335392596363350250000010669125947234540180_);}
	.st5{font-family:'Montserrat-Regular';}
	.st6{clip-path:url(#SVGID_00000050645522067084670090000006947361692661116566_);fill:#0000FF;}
	.st7{clip-path:url(#SVGID_00000026122012620436920070000014824227794904204965_);fill:#0000FF;}
	.st8{clip-path:url(#SVGID_00000041979536980678843230000013379225156998499985_);fill:#0000FF;}
	.st9{clip-path:url(#SVGID_00000044179250326800061600000005501993101064929417_);fill:#0000FF;}
	.st10{clip-path:url(#SVGID_00000142146518058634573700000000512088922855488426_);fill:#0000FF;}
</style>
<g>
	<g>
		<defs>
			<rect id="SVGID_1_" x="14.2" y="23" width="116.5" height="52.2"/>
		</defs>
		<clipPath id="SVGID_00000087375233909541533060000009748537075906632866_">
			<use xlink:href="#SVGID_1_"  style="overflow:visible;"/>
		</clipPath>
		<g style="clip-path:url(#SVGID_00000087375233909541533060000009748537075906632866_);">
			<text transform="matrix(1 0 0 1 14.2376 75.1673)" class="st1 st2 st3">MY</text>
		</g>
	</g>
	<g>
		<defs>
			<rect id="SVGID_00000049196945652774655340000007152426732081611665_" x="14.2" y="23" width="116.5" height="52.2"/>
		</defs>
		<clipPath id="SVGID_00000104670257388442176060000006369559341397844136_">
			<use xlink:href="#SVGID_00000049196945652774655340000007152426732081611665_"  style="overflow:visible;"/>
		</clipPath>
		<g style="clip-path:url(#SVGID_00000104670257388442176060000006369559341397844136_);">
			<text transform="matrix(1 0 0 1 45.5813 75.1673)" class="st1 st5 st3">LIBRA</text>
			<text transform="matrix(1 0 0 1 104.8813 75.1673)" class="st1 st5 st3">R</text>
			<text transform="matrix(1 0 0 1 118.5813 75.1673)" class="st1 st5 st3">Y</text>
		</g>
	</g>
	<g>
		<defs>
			<rect id="SVGID_00000017475733769682131810000004419092551981145789_" x="14.2" y="23" width="116.5" height="52.2"/>
		</defs>
		<clipPath id="SVGID_00000042694239581729994860000017030186821495813514_">
			<use xlink:href="#SVGID_00000017475733769682131810000004419092551981145789_"  style="overflow:visible;"/>
		</clipPath>
		<path style="clip-path:url(#SVGID_00000042694239581729994860000017030186821495813514_);fill:#0000FF;" d="M100.1,26.8
			c-0.5-0.4-1.2-0.5-1.8-0.2l-2.2,0.8c0.1,0.6,0.1,1.3,0,2l2.8-1.1c0,0,0,0,0.1,0h0.1l0.1,0.1v11.9c0,0.1,0,0.1-0.1,0.1l-25.5,9.7
			l0,0h-0.1L73.4,50V36.7c-0.1,0-0.2,0-0.3,0c-0.5,0-1-0.1-1.5-0.1V50c0,0.6,0.3,1.3,0.9,1.6c0.3,0.2,0.7,0.4,1.1,0.4
			c0.2,0,0.5,0,0.7-0.1l0,0l25.4-9.6c0.8-0.3,1.3-1,1.3-1.8v-12C101,27.8,100.7,27.2,100.1,26.8"/>
	</g>
	<g>
		<defs>
			<rect id="SVGID_00000116225200446891928010000016625818822095528329_" x="14.2" y="23" width="116.5" height="52.2"/>
		</defs>
		<clipPath id="SVGID_00000026127237106154081600000014731576922364056987_">
			<use xlink:href="#SVGID_00000116225200446891928010000016625818822095528329_"  style="overflow:visible;"/>
		</clipPath>
		<path style="clip-path:url(#SVGID_00000026127237106154081600000014731576922364056987_);fill:#0000FF;" d="M73.1,36.7
			c-0.5,0-1-0.1-1.5-0.1V50c0,0.1,0,0.1-0.1,0.1h-0.1L46,40.5c-0.1,0-0.1-0.1-0.1-0.1V28.5c0-0.1,0-0.1,0.1-0.1h0.1c0,0,0,0,0.1,0
			l2.7,1c0-0.7,0-1.3,0.1-1.9l-2.2-0.8c-0.6-0.2-1.3-0.1-1.8,0.2c-0.5,0.4-0.9,1-0.9,1.6v11.9c0,0.8,0.5,1.6,1.3,1.8l25.4,9.6
			c0.2,0.1,0.5,0.1,0.7,0.1c0.4,0,0.8-0.1,1.1-0.3c0.5-0.4,0.9-1,0.9-1.6V36.7C73.3,36.7,73.2,36.7,73.1,36.7"/>
	</g>
	<g>
		<defs>
			<rect id="SVGID_00000161611665843774586960000015390320023493311636_" x="14.2" y="23" width="116.5" height="52.2"/>
		</defs>
		<clipPath id="SVGID_00000099644246124373285060000016024045489016237740_">
			<use xlink:href="#SVGID_00000161611665843774586960000015390320023493311636_"  style="overflow:visible;"/>
		</clipPath>
		<path style="clip-path:url(#SVGID_00000099644246124373285060000016024045489016237740_);fill:#0000FF;" d="M95,24.8
			C94.9,24.8,94.9,24.8,95,24.8l-21.5,13l-0.1,0.1v11.7c0,0,0,0.1,0.1,0.1s0.1,0,0.1,0l21.4-13l0.1-0.1V25
			C95.1,25,95.1,24.9,95,24.8L95,24.8 M73.6,51.6c-0.3,0-0.7-0.1-1-0.3c-0.6-0.4-1-1-1-1.7V37.9c0-0.7,0.4-1.3,1-1.7l21.4-13
			c0.6-0.4,1.4-0.4,2,0s1,1,1,1.7v11.7c0,0.7-0.4,1.3-1,1.7l-21.4,13C74.3,51.5,73.9,51.6,73.6,51.6"/>
	</g>
	<g>
		<defs>
			<rect id="SVGID_00000140736649409901390720000010646044114825286326_" x="14.2" y="23" width="116.5" height="52.2"/>
		</defs>
		<clipPath id="SVGID_00000087383465277150903320000014861234021797641114_">
			<use xlink:href="#SVGID_00000140736649409901390720000010646044114825286326_"  style="overflow:visible;"/>
		</clipPath>
		<path style="clip-path:url(#SVGID_00000087383465277150903320000014861234021797641114_);fill:#0000FF;" d="M71.4,49.7L71.4,49.7
			c0.2,0,0.2-0.1,0.2-0.1V37.9c0-0.1,0-0.1-0.1-0.1l-21.4-13H50c-0.1,0-0.1,0.1-0.1,0.1v11.7c0,0.1,0,0.1,0.1,0.1L71.4,49.7z
			 M71.4,51.6c-0.4,0-0.7-0.1-1-0.3l0,0L49,38.3c-0.6-0.4-1-1-1-1.7V25c0-0.7,0.4-1.4,1-1.7c0.6-0.4,1.4-0.3,2,0l21.4,13
			c0.6,0.4,1,1,1,1.7v11.7c0,0.7-0.4,1.4-1,1.7C72.1,51.5,71.8,51.6,71.4,51.6"/>
	</g>
	<g>
		<defs>
			<rect id="SVGID_00000132079339573047462950000008295160700523200931_" x="14.2" y="23" width="116.5" height="52.2"/>
		</defs>
		<clipPath id="SVGID_00000107552231338445487170000017964956313728565150_">
			<use xlink:href="#SVGID_00000132079339573047462950000008295160700523200931_"  style="overflow:visible;"/>
		</clipPath>
		<path style="clip-path:url(#SVGID_00000107552231338445487170000017964956313728565150_);fill:#0000FF;" d="M103.5,32.3
			c-0.4-0.4-1-0.5-1.6-0.5l-2.2,0.3c0.2,0.6,0.2,1.2,0.3,1.8l2.2-0.3l0,0h0.1l0.1,0.1v12c0,0.1-0.1,0.1-0.1,0.1l-28.7,4.4
			c-0.1,0-0.1,0-0.1,0l-0.1-0.1v-7.8c-0.4,0.1-0.9,0.2-1.4,0.2c-0.2,0-0.3,0-0.5,0v7.6c0,0.1,0,0.1-0.1,0.1h-0.1l-28.7-4.4
			c-0.1,0-0.1-0.1-0.1-0.1v-12c0-0.1,0-0.1,0.1-0.1h0.1l2,0.3c0-0.6,0.2-1.2,0.3-1.8l-2-0.3c-0.6-0.1-1.2,0.1-1.6,0.5
			c-0.4,0.4-0.7,0.9-0.7,1.5v12c0,1,0.7,1.8,1.7,2l28.7,4.4l0,0c0.1,0,0.2,0,0.3,0c0.4,0,0.7-0.1,1.1-0.3c0.3,0.2,0.7,0.3,1.1,0.3
			c0.1,0,0.2,0,0.3,0l28.7-4.4c1-0.2,1.7-1,1.7-2v-12C104.2,33.2,104,32.7,103.5,32.3"/>
	</g>
</g>
</svg>
