<?xml version="1.0" encoding="utf-8"?>
<!-- Generator: Adobe Illustrator 26.3.1, SVG Export Plug-In . SVG Version: 6.00 Build 0)  -->
<svg version="1.1" id="Calque_1" xmlns="http://www.w3.org/2000/svg" xmlns:xlink="http://www.w3.org/1999/xlink" x="0px" y="0px"
	 viewBox="0 0 21.1 21.1" style="enable-background:new 0 0 21.1 21.1;" xml:space="preserve">
<style type="text/css">
	.st0{fill:#EDEDED;}
</style>
<g id="Layer_1_00000052086998712875460380000015520604656370781834_">
</g>
<path class="st0" d="M20.4,18.6l-5.7-5.8c-0.2-0.2-0.2-0.5-0.1-0.7c2-3,1.5-7-1-9.6c-1.4-1.4-3.4-2.2-5.4-2.2s-4,0.8-5.4,2.2
	c-3,3-3,7.8,0,10.8c1.4,1.4,3.4,2.2,5.4,2.2c1.5,0,2.9-0.4,4.2-1.2c0.1,0,0.2,0,0.3,0c0.1,0,0.3,0,0.4,0.2l5.8,5.7
	c0.2,0.2,0.6,0.3,0.9,0.3c0.3,0,0.6-0.1,0.9-0.3c0.2-0.2,0.3-0.5,0.3-0.8C20.7,19.2,20.6,18.9,20.4,18.6z M12.9,11.1
	c-0.2,0.3-0.5,0.7-0.8,0.9c-0.3,0.3-0.6,0.5-1,0.8c-0.9,0.6-2,0.9-3.1,0.9c-1.5,0-3-0.6-4.1-1.7C2.9,11,2.3,9.5,2.3,8
	c0-1.5,0.6-2.9,1.7-4c1.1-1.1,2.6-1.7,4.1-1.7s3,0.6,4.1,1.7c0.9,0.9,1.5,2.1,1.7,3.5C13.9,8.8,13.6,10.1,12.9,11.1z"/>
</svg>
